HIERARCHY
ROOT RootJoint
{
    OFFSET   0.000000   0.000000   0.000000
    CHANNELS 6 Xposition Yposition Zposition Xrotation Yrotation Zrotation
    JOINT pelvis_lowerback
    {
        OFFSET   0.000000   0.093605   0.000000
        CHANNELS 3 Xrotation Yrotation Zrotation
        JOINT lowerback_torso
        {
            OFFSET   0.000000   0.100000   0.000000
            CHANNELS 3 Xrotation Yrotation Zrotation
            JOINT torso_head
            {
                OFFSET   0.000000   0.282350   0.000000
                CHANNELS 3 Xrotation Yrotation Zrotation
                End Site
                {
                    OFFSET   0.000000   0.192650   0.000000
                }
            }
            JOINT rTorso_Clavicle
            {
                OFFSET  -0.001000   0.157500   0.000000
                CHANNELS 3 Xrotation Yrotation Zrotation
                JOINT rShoulder
                {
                    OFFSET  -0.117647   0.000000   0.000000
                    CHANNELS 3 Xrotation Yrotation Zrotation
                    JOINT rElbow
                    {
                        OFFSET  -0.245000   0.000000   0.000000
                        CHANNELS 3 Xrotation Yrotation Zrotation
                        JOINT rWrist
                        {
                            OFFSET  -0.240000   0.000000   0.000000
                            CHANNELS 3 Xrotation Yrotation Zrotation
                            End Site
                            {
                                OFFSET  -0.116353  -0.002500   0.000000
                            }
                        }
                    }
                }
            }
            JOINT lTorso_Clavicle
            {
                OFFSET   0.001000   0.157500   0.000000
                CHANNELS 3 Xrotation Yrotation Zrotation
                JOINT lShoulder
                {
                    OFFSET   0.117647   0.000000   0.000000
                    CHANNELS 3 Xrotation Yrotation Zrotation
                    JOINT lElbow
                    {
                        OFFSET   0.245000   0.000000   0.000000
                        CHANNELS 3 Xrotation Yrotation Zrotation
                        JOINT lWrist
                        {
                            OFFSET   0.240000   0.000000   0.000000
                            CHANNELS 3 Xrotation Yrotation Zrotation
                            End Site
                            {
                                OFFSET   0.116353  -0.002500   0.000000
                            }
                        }
                    }
                }
            }
        }
    }
    JOINT rHip
    {
        OFFSET  -0.100000  -0.051395   0.000000
        CHANNELS 3 Xrotation Yrotation Zrotation
        JOINT rKnee
        {
            OFFSET   0.000000  -0.410000   0.000000
            CHANNELS 3 Xrotation Yrotation Zrotation
            JOINT rAnkle
            {
                OFFSET   0.000000  -0.390000   0.000000
                CHANNELS 3 Xrotation Yrotation Zrotation
                JOINT rToeJoint
                {
                    OFFSET   0.000000  -0.050000   0.130000
                    CHANNELS 3 Xrotation Yrotation Zrotation
                    End Site
                    {
                        OFFSET  -0.010000   0.002000   0.060000
                    }
                }
            }
        }
    }
    JOINT lHip
    {
        OFFSET   0.100000  -0.051395   0.000000
        CHANNELS 3 Xrotation Yrotation Zrotation
        JOINT lKnee
        {
            OFFSET   0.000000  -0.410000   0.000000
            CHANNELS 3 Xrotation Yrotation Zrotation
            JOINT lAnkle
            {
                OFFSET   0.000000  -0.390000   0.000000
                CHANNELS 3 Xrotation Yrotation Zrotation
                JOINT lToeJoint
                {
                    OFFSET   0.000000  -0.050000   0.130000
                    CHANNELS 3 Xrotation Yrotation Zrotation
                    End Site
                    {
                        OFFSET   0.010000   0.002000   0.060000
                    }
                }
            }
        }
    }
}
MOTION
Frames: 8
Frame Time:   0.008333
 -2.415618   0.927278   5.276316 -156.815747  77.098799 154.384624   9.883346  -3.379163   0.656277   0.874284  -5.477722   2.457990   2.174469   4.244836   2.745069   0.608177   2.143949  13.615574  -6.152616  15.522328  34.849051  -0.004627  54.605537   0.009448   7.533068   1.314802  -3.744027  -0.198292  -6.157065 -16.442814   1.915184 -13.330096 -37.852390  -0.002666 -43.260051  -0.004563   6.963652  -2.597106   3.620261 -17.302850   7.986149 -11.454714  61.148403  -0.042079  -0.054760  -8.722802  -4.331390   3.258650  -4.937715  -0.004409  -0.008714   7.264034 -10.344559 -10.556269   8.426361  -0.002406  -0.015145   9.333127  -6.958724  17.064753 -25.957207   0.029022  -0.133725
 -2.415225   0.927837   5.278766 -161.733860  74.719852 159.429559   9.783947  -3.749368   0.606382   0.911811  -5.986954   2.554218   2.094426   4.260568   2.913171   0.615134   1.620615  13.636114  -6.167062  14.424319  34.592570  -0.006754  53.644765   0.013392   7.427417   1.737054  -3.870703  -0.174435  -6.511577 -16.532466   1.795664 -13.845572 -37.869848  -0.001672 -43.167451  -0.002671   7.051583  -2.557776   3.437177 -17.188130   8.401801 -11.286948  60.602092  -0.042173  -0.055916  -8.941724  -4.386467   3.035689  -4.967302  -0.003892  -0.007705   7.559666  -9.897780 -10.482467   8.288141  -0.002540  -0.015861   9.479877  -6.409248  17.029632 -27.164759   0.032254  -0.143724
 -2.414820   0.928666   5.281136 -165.414575  72.232827 163.221258   9.686735  -4.134134   0.583668   0.951731  -6.518008   2.651608   2.006311   4.280905   3.068215   0.680806   1.065890  13.649172  -6.137465  13.321230  34.334686  -0.008999  52.685432   0.017216   7.302303   1.828229  -3.977414  -0.163773  -6.860432 -16.620256   1.674767 -14.345007 -37.898629  -0.000945 -43.088294  -0.001298   7.139392  -2.538649   3.220480 -17.063023   8.819031 -11.083273  60.096758  -0.041600  -0.056250  -9.150760  -4.437506   2.825710  -5.018944  -0.003717  -0.007485   7.797099  -9.488697 -10.375597   8.147526  -0.002629  -0.016488   9.757232  -5.917596  17.015078 -28.496007   0.036595  -0.154160
 -2.414404   0.929534   5.283463 -168.167375  69.727546 166.047548   9.605882  -4.520622   0.595556   1.005800  -7.048970   2.760310   1.923719   4.301475   3.212649   0.773105   0.508418  13.649946  -6.091411  12.256895  34.085803  -0.010772  51.772231   0.020293   7.172307   1.772869  -4.059467  -0.160520  -7.190464 -16.692632   1.556513 -14.817228 -37.926190  -0.000421 -43.020145  -0.000336   7.224120  -2.545735   3.010062 -16.956914   9.209318 -10.834115  59.644132  -0.040088  -0.055247  -9.346573  -4.483701   2.629887  -5.070309  -0.003538  -0.007290   7.998054  -9.114578 -10.266786   8.017053  -0.002673  -0.016619  10.123279  -5.474172  17.011749 -29.882951   0.040661  -0.162230
 -2.413967   0.930303   5.285766 -170.274482  67.251414 168.187264   9.540857  -4.900938   0.635344   1.072635  -7.566731   2.882795   1.849194   4.321060   3.348879   0.876006  -0.036201  13.643170  -6.040637  11.244079  33.848942  -0.011963  50.911864   0.022534   7.043092   1.656524  -4.128498  -0.162130  -7.499183 -16.747259   1.442821 -15.259553 -37.947252  -0.000039 -42.959419   0.000339   7.305821  -2.566400   2.815794 -16.877839   9.566452 -10.547283  59.235246  -0.037959  -0.053245  -9.530063  -4.525380   2.447710  -5.120571  -0.003346  -0.007076   8.178644  -8.764701 -10.173866   7.905522  -0.002658  -0.016123  10.534841  -5.061837  17.013232 -31.290686   0.043911  -0.167474
 -2.413521   0.931425   5.288000 -172.002191  64.680390 170.053397   9.485706  -5.328308   0.595579   1.142322  -8.108462   2.977536   1.777940   4.336438   3.475973   0.999701  -0.577796  13.671573  -5.979204  10.271077  33.638631  -0.013446  50.096920   0.024698   6.914700   1.488867  -4.203822  -0.173150  -7.798214 -16.807136   1.331963 -15.675705 -37.960453   0.000273 -42.898897   0.000900   7.385744  -2.580974   2.634627 -16.750228   9.893815 -10.373959  58.846239  -0.035938  -0.051304  -9.701301  -4.564407   2.277886  -5.162552  -0.003095  -0.006710   8.341430  -8.270987 -10.034335   7.800220  -0.002515  -0.015793  10.786718  -4.463055  17.027394 -29.211524   0.013558  -0.071323
 -2.413036   0.932276   5.290182 -173.329752  62.253865 171.425718   9.449952  -5.687591   0.646893   1.226291  -8.594566   3.088497   1.717113   4.353629   3.590936   1.112507  -1.083710  13.662652  -5.925773   9.364030  33.432022  -0.014162  49.338187   0.026039   6.790342   1.316164  -4.254059  -0.182518  -8.073790 -16.847700   1.226732 -16.067076 -37.979233   0.000464 -42.850064   0.001207   7.460881  -2.614511   2.463581 -16.685482  10.206966 -10.092320  58.503394  -0.033330  -0.048372  -9.861844  -4.599125   2.119593  -5.205665  -0.002865  -0.006395   8.470819  -7.968412  -9.943321   7.708529  -0.002404  -0.014845  11.259785  -4.131240  17.024410 -31.293379   0.022382  -0.109757
 -2.412027   0.932776   5.292207 -174.282481  59.748732 172.441608   9.353904  -6.036709   0.622190   1.385829  -9.048077   3.228047   1.653430   4.351098   3.742716   1.161472  -1.613215  13.702368  -5.762909   8.408159  33.267139  -0.018585  47.810136   0.033487   6.693548   1.684419  -4.419788  -0.178420  -8.303683 -16.864047   1.119894 -16.611878 -38.029828   0.000775 -42.777044   0.001750   7.568372  -2.625480   2.280269 -16.331846  10.552367  -9.827976  57.829854  -0.036050  -0.053686 -10.200487  -4.613577   2.086697  -5.200746  -0.002267  -0.004987   8.850551  -7.473192  -9.861906   7.529006  -0.002808  -0.016614  11.308296  -3.719266  16.830628 -32.003772   0.022552  -0.108808
